<svg width="24" height="24" viewBox="0 0 24 24" fill="none" xmlns="http://www.w3.org/2000/svg">
<path d="M18.4914 20.1166L19.1267 6.65503H20.0475C20.425 6.65503 20.7288 6.34196 20.7288 5.96447C20.7288 5.58697 20.425 5.26471 20.0475 5.26471H16.0237V3.88354C16.0237 2.56688 15.1306 1.71057 13.7127 1.71057H10.269C8.85103 1.71057 7.9671 2.56688 7.9671 3.88354V5.26471H3.9618C3.5935 5.26471 3.27124 5.58697 3.27124 5.96447C3.27124 6.34196 3.5935 6.65503 3.9618 6.65503H4.88258L5.51787 20.1257C5.58234 21.4516 6.45708 22.2895 7.78297 22.2895H16.2263C17.543 22.2895 18.427 21.4424 18.4914 20.1166ZM9.44032 3.97563C9.44032 3.45081 9.82704 3.08251 10.3795 3.08251H13.6114C14.173 3.08251 14.5598 3.45081 14.5598 3.97563V5.26471H9.44032V3.97563ZM7.9211 20.9084C7.38705 20.9084 6.99109 20.5032 6.96347 19.9692L6.31895 6.65503H17.6535L17.0458 19.9692C17.0182 20.5125 16.6314 20.9084 16.0882 20.9084H7.9211ZM14.7347 19.2879C15.0385 19.2879 15.2687 19.0393 15.2779 18.6893L15.5542 8.96613C15.5634 8.61625 15.324 8.35846 15.0109 8.35846C14.7255 8.35846 14.4861 8.62549 14.4769 8.95694L14.2006 18.6893C14.1915 19.0208 14.4216 19.2879 14.7347 19.2879ZM9.27461 19.2879C9.58768 19.2879 9.81785 19.0208 9.80862 18.6893L9.5324 8.95694C9.52321 8.62549 9.27461 8.35846 8.98916 8.35846C8.67609 8.35846 8.44592 8.61625 8.45511 8.96613L8.74056 18.6893C8.74975 19.0393 8.97073 19.2879 9.27461 19.2879ZM12.5617 18.6893V8.95694C12.5617 8.62549 12.3131 8.35846 12.0092 8.35846C11.7054 8.35846 11.4476 8.62549 11.4476 8.95694V18.6893C11.4476 19.0208 11.7054 19.2879 12.0092 19.2879C12.3039 19.2879 12.5617 19.0208 12.5617 18.6893Z" fill="black"/>
</svg>
